<svg id="NASA.Logo" xmlns="http://www.w3.org/2000/svg" width="92.23" height="76.34" viewBox="0 0 92.23 76.34">
  <path id="Path_382" data-name="Path 382" d="M341.61,396a38.17,38.17,0,1,1-38.17-38.17A38.17,38.17,0,0,1,341.61,396Z" transform="translate(-260.71 -357.83)" fill="#0066b3"/>
  <path id="Path_383" data-name="Path 383" d="M304,361.29a.31.31,0,1,1-.31-.31.31.31,0,0,1,.31.31Z" transform="translate(-260.71 -357.83)" fill="#fff"/>
  <path id="Path_384" data-name="Path 384" d="M306.12,366a.39.39,0,0,1-.38.39.4.4,0,0,1-.39-.39.39.39,0,0,1,.39-.38A.38.38,0,0,1,306.12,366Z" transform="translate(-260.71 -357.83)" fill="#fff"/>
  <path id="Path_385" data-name="Path 385" d="M311.72,373.7a.4.4,0,0,1-.39.39.39.39,0,0,1-.38-.39.38.38,0,0,1,.38-.38A.39.39,0,0,1,311.72,373.7Z" transform="translate(-260.71 -357.83)" fill="#fff"/>
  <path id="Path_386" data-name="Path 386" d="M302.72,368.66a.31.31,0,1,1-.31-.31.31.31,0,0,1,.31.31Z" transform="translate(-260.71 -357.83)" fill="#fff"/>
  <path id="Path_387" data-name="Path 387" d="M306.07,370.43a.31.31,0,1,1-.31-.31A.31.31,0,0,1,306.07,370.43Z" transform="translate(-260.71 -357.83)" fill="#fff"/>
  <path id="Path_388" data-name="Path 388" d="M301.72,365.48a.38.38,0,0,1-.38.38.39.39,0,0,1-.39-.38.4.4,0,0,1,.39-.39.39.39,0,0,1,.38.39Z" transform="translate(-260.71 -357.83)" fill="#fff"/>
  <path id="Path_389" data-name="Path 389" d="M296.65,368.56a.31.31,0,1,1-.31-.31A.31.31,0,0,1,296.65,368.56Z" transform="translate(-260.71 -357.83)" fill="#fff"/>
  <path id="Path_390" data-name="Path 390" d="M297.56,369.18a.31.31,0,1,1-.31-.31A.31.31,0,0,1,297.56,369.18Z" transform="translate(-260.71 -357.83)" fill="#fff"/>
  <path id="Path_391" data-name="Path 391" d="M298.47,369.81a.31.31,0,0,1-.31.31.32.32,0,0,1-.32-.31.33.33,0,0,1,.32-.32A.32.32,0,0,1,298.47,369.81Z" transform="translate(-260.71 -357.83)" fill="#fff"/>
  <path id="Path_392" data-name="Path 392" d="M297.08,371a.31.31,0,1,1-.31-.31A.31.31,0,0,1,297.08,371Z" transform="translate(-260.71 -357.83)" fill="#fff"/>
  <path id="Path_393" data-name="Path 393" d="M289.86,376.07a.31.31,0,1,1-.31-.31A.31.31,0,0,1,289.86,376.07Z" transform="translate(-260.71 -357.83)" fill="#fff"/>
  <path id="Path_394" data-name="Path 394" d="M291.2,377.7a.32.32,0,1,1-.31-.31.31.31,0,0,1,.31.31Z" transform="translate(-260.71 -357.83)" fill="#fff"/>
  <path id="Path_395" data-name="Path 395" d="M290.14,404a.31.31,0,1,1-.31-.31A.31.31,0,0,1,290.14,404Z" transform="translate(-260.71 -357.83)" fill="#fff"/>
  <path id="Path_396" data-name="Path 396" d="M290.34,411.2a.4.4,0,0,1-.39.39.39.39,0,0,1-.38-.39.38.38,0,0,1,.38-.38.39.39,0,0,1,.39.38Z" transform="translate(-260.71 -357.83)" fill="#fff"/>
  <path id="Path_397" data-name="Path 397" d="M286.22,414.91a.31.31,0,1,1-.31-.31.31.31,0,0,1,.31.31Z" transform="translate(-260.71 -357.83)" fill="#fff"/>
  <path id="Path_398" data-name="Path 398" d="M281.29,416.42a.38.38,0,1,1-.38-.38.38.38,0,0,1,.38.38Z" transform="translate(-260.71 -357.83)" fill="#fff"/>
  <path id="Path_399" data-name="Path 399" d="M280.29,413.07a.38.38,0,1,1-.38-.38A.38.38,0,0,1,280.29,413.07Z" transform="translate(-260.71 -357.83)" fill="#fff"/>
  <path id="Path_400" data-name="Path 400" d="M279.72,415.2a.31.31,0,1,1-.31-.31A.31.31,0,0,1,279.72,415.2Z" transform="translate(-260.71 -357.83)" fill="#fff"/>
  <path id="Path_401" data-name="Path 401" d="M276,413.43a.31.31,0,1,1-.31-.31A.31.31,0,0,1,276,413.43Z" transform="translate(-260.71 -357.83)" fill="#fff"/>
  <path id="Path_402" data-name="Path 402" d="M288.9,419.41a.31.31,0,1,1-.31-.31.31.31,0,0,1,.31.31Z" transform="translate(-260.71 -357.83)" fill="#fff"/>
  <path id="Path_403" data-name="Path 403" d="M292.77,416.56a.38.38,0,1,1-.38-.38.38.38,0,0,1,.38.38Z" transform="translate(-260.71 -357.83)" fill="#fff"/>
  <path id="Path_404" data-name="Path 404" d="M293.21,420.22a.32.32,0,0,1-.32.31.31.31,0,0,1,0-.62.32.32,0,0,1,.32.31Z" transform="translate(-260.71 -357.83)" fill="#fff"/>
  <path id="Path_405" data-name="Path 405" d="M309.13,416.73a.31.31,0,1,1-.31-.31.31.31,0,0,1,.31.31Z" transform="translate(-260.71 -357.83)" fill="#fff"/>
  <path id="Path_406" data-name="Path 406" d="M301.72,419.36a.31.31,0,1,1-.31-.31A.31.31,0,0,1,301.72,419.36Z" transform="translate(-260.71 -357.83)" fill="#fff"/>
  <path id="Path_407" data-name="Path 407" d="M321.67,423.14a.32.32,0,1,1-.32-.31.31.31,0,0,1,.32.31Z" transform="translate(-260.71 -357.83)" fill="#fff"/>
  <path id="Path_408" data-name="Path 408" d="M323.29,408.43a.38.38,0,1,1-.38-.38A.38.38,0,0,1,323.29,408.43Z" transform="translate(-260.71 -357.83)" fill="#fff"/>
  <path id="Path_409" data-name="Path 409" d="M320.23,410.51a.31.31,0,1,1-.31-.31A.31.31,0,0,1,320.23,410.51Z" transform="translate(-260.71 -357.83)" fill="#fff"/>
  <path id="Path_410" data-name="Path 410" d="M323.24,411.11a.38.38,0,1,1-.38-.38A.38.38,0,0,1,323.24,411.11Z" transform="translate(-260.71 -357.83)" fill="#fff"/>
  <path id="Path_411" data-name="Path 411" d="M320.23,414.82a.31.31,0,1,1-.31-.31A.31.31,0,0,1,320.23,414.82Z" transform="translate(-260.71 -357.83)" fill="#fff"/>
  <path id="Path_412" data-name="Path 412" d="M328,406.35a.31.31,0,1,1-.31-.31.31.31,0,0,1,.31.31Z" transform="translate(-260.71 -357.83)" fill="#fff"/>
  <path id="Path_413" data-name="Path 413" d="M328.79,408.24a.38.38,0,1,1-.38-.38.38.38,0,0,1,.38.38Z" transform="translate(-260.71 -357.83)" fill="#fff"/>
  <path id="Path_414" data-name="Path 414" d="M334.15,410.49a.38.38,0,0,1-.38.38.39.39,0,0,1-.39-.38.4.4,0,0,1,.39-.39A.39.39,0,0,1,334.15,410.49Z" transform="translate(-260.71 -357.83)" fill="#fff"/>
  <path id="Path_415" data-name="Path 415" d="M328.7,414.48a.31.31,0,1,1-.31-.31.31.31,0,0,1,.31.31Z" transform="translate(-260.71 -357.83)" fill="#fff"/>
  <path id="Path_416" data-name="Path 416" d="M332.14,411.23a.31.31,0,1,1-.31-.31.31.31,0,0,1,.31.31Z" transform="translate(-260.71 -357.83)" fill="#fff"/>
  <path id="Path_417" data-name="Path 417" d="M331.52,416.25a.31.31,0,1,1-.31-.31A.31.31,0,0,1,331.52,416.25Z" transform="translate(-260.71 -357.83)" fill="#fff"/>
  <path id="Path_418" data-name="Path 418" d="M310.67,365.12a.53.53,0,0,1,.41-.39l.1-.82.16.82a.56.56,0,0,1,.39.41l.83.12-.84.15a.53.53,0,0,1-.4.38l-.14.84-.14-.85a.55.55,0,0,1-.38-.39l-.8-.13.81-.14Z" transform="translate(-260.71 -357.83)" fill="#fff"/>
  <path id="Path_419" data-name="Path 419" d="M289.22,423.79a.56.56,0,0,1,.41-.39l.11-.82.16.83a.53.53,0,0,1,.38.41l.83.11-.83.15a.58.58,0,0,1-.4.39l-.14.84-.14-.85a.55.55,0,0,1-.38-.4l-.8-.13.8-.14Z" transform="translate(-260.71 -357.83)" fill="#fff"/>
  <path id="Path_420" data-name="Path 420" d="M328.66,416.23a.53.53,0,0,1,.41-.39l.11-.82.16.82a.56.56,0,0,1,.38.41l.83.12-.84.15a.54.54,0,0,1-.39.38l-.14.84-.14-.85a.52.52,0,0,1-.38-.39l-.8-.13.8-.14Z" transform="translate(-260.71 -357.83)" fill="#fff"/>
  <path id="Path_421" data-name="Path 421" d="M331.78,407.79a.56.56,0,0,1,.41-.39l.11-.82.16.83a.53.53,0,0,1,.38.41l.83.11-.83.15a.55.55,0,0,1-.4.38l-.14.85-.14-.85a.57.57,0,0,1-.38-.4l-.8-.13.8-.14Z" transform="translate(-260.71 -357.83)" fill="#fff"/>
  <path id="Path_422" data-name="Path 422" d="M293.05,376.63a.53.53,0,0,1,.41-.39l.11-.82.16.83a.53.53,0,0,1,.38.4l.83.12-.84.15a.52.52,0,0,1-.39.38l-.14.85-.15-.85a.55.55,0,0,1-.37-.4l-.8-.13.8-.14Z" transform="translate(-260.71 -357.83)" fill="#fff"/>
  <path id="Path_423" data-name="Path 423" d="M290.52,394.39c2.82,4.93,6.11,8.53,8.75,12,2.35,3,6.93,4.56,5.32,6-1.82,1.63-6.22-5.55-6.22-5.55a87.3,87.3,0,0,1-8.58-12.16l.73-.25Z" transform="translate(-260.71 -357.83)" fill="#fff"/>
  <path id="Path_424" data-name="Path 424" d="M260.71,407.32c13.62-8.95,37.4-14.73,57-22.5,14.88-5.91,28.12-13.33,35.23-23.54-18,36.72-68.23,32.37-91.23,46.38Z" transform="translate(-260.71 -357.83)" fill="#ed1c24"/>
  <path id="Path_425" data-name="Path 425" d="M297,397.77l-2-5-1.44,5Zm-4.65-8.66h6.83l4.89,12.32,1.63,1.64h-8.88l1.63-1.64-.58-1.5H293l-.5,1.72,1.17,1.42H289l1.63-1.64,3.15-10.89-1.42-1.43Z" transform="translate(-260.71 -357.83)" fill="#fff"/>
  <path id="Path_426" data-name="Path 426" d="M329,397.77l-2-5-1.45,5Zm-4.91-8.66h7.08l4.9,12.32,1.63,1.64h-8.9l1.63-1.64-.57-1.5H325l-.5,1.72,1.17,1.42H321l1.63-1.64,3.15-10.89-1.68-1.43Z" transform="translate(-260.71 -357.83)" fill="#fff"/>
  <path id="Path_427" data-name="Path 427" d="M283.12,397.8v-7.26l-1.41-1.43h4.72L285,390.54v10.89l1.63,1.64h-6.2l-5.34-9v7.4l1.37,1.64h-4.93l1.63-1.64V390.54l-1.42-1.43h6.18l5.19,8.69Z" transform="translate(-260.71 -357.83)" fill="#fff"/>
  <path id="Path_428" data-name="Path 428" d="M318.87,392.69l-.15-4.34-1.46,1a8.51,8.51,0,0,0-6.14.11c-1.57.74-3.26,2.3-3.05,4.53s1.93,3.08,3.48,3.79c2,.9,4.17,1.21,4.14,2.41,0,.76-1.28,1.3-2.27,1.27s-3.81-.24-5.33-2.06l.29,4.57,1.62-1.19a10.44,10.44,0,0,0,6.6.27c2.2-.72,4.52-2.56,3.23-5.79a5.37,5.37,0,0,0-3-2.61c-.84-.34-3.38-1.34-4.09-1.71s-.73-1.8,1.26-2.08a7.13,7.13,0,0,1,4.85,1.83Z" transform="translate(-260.71 -357.83)" fill="#fff"/>
  <path id="Path_429" data-name="Path 429" d="M271.26,428.74c27.36-27.92,68.15-40.83,81.66-67.46-8.14,25.89-51.72,40.17-81.74,68.78Z" transform="translate(-260.71 -357.83)" fill="#ed1c24"/>
  <path id="Path_430" data-name="Path 430" d="M289.79,394.64c-.32-.55-.64-1.11-1-1.69-7.3-13.12-6.24-26.52,7-20.68,11.2,5,21.91,18.85,26.21,28.71,2,4.57,7.34,22.52-9.88,15.25v-.11c16.26,6.7,13.45-10.27,4.74-23.28a70.75,70.75,0,0,0-15.4-16.46c-13.49-9.85-21.71-3.82-12.24,15.5.43.87.87,1.71,1.33,2.51l-.73.25Z" transform="translate(-260.71 -357.83)" fill="#fff"/>
</svg>
